<svg xmlns="http://www.w3.org/2000/svg" xmlns:xlink="http://www.w3.org/1999/xlink" width="225" zoomAndPan="magnify" viewBox="0 0 168.75 30.000001" height="40" preserveAspectRatio="xMidYMid meet" version="1.0"><path fill="#065666" d="M 18.539062 3.144531 C 19.78125 2.828125 19.65625 3.394531 20.109375 4.589844 C 20.632812 6.039062 20.625 6.023438 21.164062 7.464844 C 21.707031 8.011719 21.757812 7.945312 22.539062 7.984375 C 22.613281 7.988281 23.417969 8.023438 23.222656 8.675781 C 23.152344 8.917969 21.738281 8.960938 21.605469 8.964844 C 20.339844 9.003906 21.976562 9.90625 21.351562 11.453125 C 20.800781 12.816406 21.054688 12.917969 20.230469 14.113281 C 19.691406 14.898438 19.589844 14.90625 19.628906 16.402344 C 19.664062 17.792969 23.507812 17.984375 25.910156 19.5625 C 27.554688 20.636719 28.0625 23.898438 28.035156 24.132812 C 27.933594 25.003906 27.523438 24.859375 20.082031 24.871094 C 19.355469 24.871094 18.632812 24.871094 17.910156 24.875 C 14.5 24.878906 11.089844 24.882812 7.679688 24.890625 C 6.472656 24.855469 6.078125 25.324219 5.683594 24.167969 C 5.808594 23.261719 5.851562 23.28125 6.015625 22.589844 C 6.246094 21.835938 6.230469 21.84375 6.496094 21.09375 C 8.238281 17.683594 13.945312 18.21875 13.996094 16.410156 C 14.039062 14.855469 13.90625 14.855469 13.035156 13.5625 C 12.621094 12.511719 12.691406 12.496094 12.257812 11.46875 C 12.207031 11.351562 11.890625 10.601562 12.28125 9.882812 C 12.964844 8.617188 11.445312 8.996094 11.0625 8.984375 C 10.121094 8.960938 10.042969 8.042969 11.0625 8 C 11.265625 7.988281 11.472656 8 11.679688 7.992188 C 13.335938 7.90625 13.15625 2.207031 15.046875 3.152344 C 16.613281 3.933594 16.753906 4.132812 18.539062 3.144531 Z M 18.539062 3.144531 " fill-opacity="1" fill-rule="evenodd"/><path fill="#faf1d7" d="M 135.734375 6.714844 L 136.636719 6.546875 C 136.683594 6.777344 136.929688 6.933594 136.976562 7.160156 C 137.054688 7.523438 136.929688 7.90625 137.003906 8.269531 C 137.257812 9.585938 139.421875 7.792969 140.339844 9.824219 C 138.746094 11.519531 137.152344 8.910156 135.914062 11.476562 C 135.652344 12.195312 131.476562 23.738281 134.375 20.898438 C 137.617188 17.714844 137.085938 17.261719 140.324219 14.050781 C 142.21875 12.734375 144.527344 12.660156 144.714844 12.871094 C 145.429688 13.660156 141.242188 24.242188 144.351562 20.335938 C 146.835938 17.214844 148.53125 13.769531 148.867188 13.753906 C 151.808594 13.625 146.441406 22.023438 148.851562 20.738281 C 150.441406 19.890625 153.242188 15.011719 153.554688 14.464844 C 154.460938 13.476562 154.410156 13.464844 155.550781 12.699219 C 155.734375 12.722656 155.902344 12.527344 156.085938 12.550781 C 156.675781 12.632812 156.507812 14.046875 157.71875 13.953125 C 158.472656 13.898438 159.214844 13.746094 159.964844 13.660156 C 160.070312 13.648438 161.171875 13.527344 161.109375 14.285156 C 161.097656 14.421875 160.917969 14.507812 160.90625 14.640625 C 158.296875 15.628906 157.886719 15.066406 157.609375 15.898438 C 156.613281 18.878906 157.210938 19.261719 154.855469 21.359375 C 153.8125 22.289062 152.074219 22.382812 151.667969 20.949219 C 151.144531 19.113281 149.066406 23.679688 147.222656 22.058594 C 146.339844 21.285156 146.964844 20.390625 146.082031 20.507812 C 145.433594 20.59375 143.476562 23.90625 141.882812 21.894531 C 141.027344 20.8125 142.222656 19.097656 141.097656 19.300781 C 140.492188 19.414062 139.246094 23.054688 137.324219 20.867188 C 136.21875 19.605469 133.867188 24.84375 131.769531 22.027344 C 130.765625 20.675781 132.554688 15.777344 132.25 15.414062 C 132.097656 15.230469 130.710938 15.117188 130.453125 15.960938 C 129.539062 18.988281 130.148438 19.414062 127.683594 21.433594 C 125.097656 23.558594 123.082031 20.949219 125.785156 15.570312 C 126.734375 13.683594 128.824219 11.8125 129.503906 13.179688 C 130.386719 14.957031 132.96875 13.613281 133.183594 13.148438 C 134.335938 10.660156 133.503906 10.59375 133.296875 10.585938 C 133.25 10.582031 129.699219 11.261719 128.722656 10.628906 C 126.40625 9.128906 130.960938 9.554688 134.472656 8.878906 C 134.796875 8.570312 134.957031 8.679688 135.734375 6.714844 Z M 127.085938 17.058594 C 126.136719 19.773438 125.8125 19.878906 126.265625 20.265625 C 127.480469 21.296875 130.007812 13.707031 127.84375 15.546875 C 127.742188 15.632812 127.789062 15.65625 127.085938 17.058594 Z M 138.574219 19.324219 C 138.988281 19.648438 138.945312 19.648438 138.988281 19.648438 C 139.4375 19.617188 142.257812 15.679688 142.269531 15.421875 C 142.316406 14.429688 140.457031 14.789062 138.574219 19.324219 Z M 155.644531 17.101562 C 155.894531 16.054688 155.917969 16.0625 155.914062 15.96875 C 155.824219 13.382812 153.085938 18.660156 153.210938 19.875 C 153.449219 22.160156 155.527344 17.371094 155.644531 17.101562 Z M 155.644531 17.101562 " fill-opacity="1" fill-rule="evenodd"/><path fill="#faf1d7" d="M 104.46875 7.199219 C 104.644531 7.226562 104.820312 7.101562 104.996094 7.128906 C 106.789062 7.402344 103.441406 15.027344 102.398438 18.855469 C 99.933594 27.925781 106.042969 16.105469 107.21875 16.117188 C 109.214844 16.144531 103.914062 22.765625 102.847656 23.332031 C 100.175781 24.761719 100.21875 21.273438 100.222656 20.992188 C 100.261719 17.871094 96.710938 25.261719 94.070312 22.539062 C 93.335938 21.785156 93.261719 20.609375 93.234375 20.578125 C 92.910156 20.167969 92.132812 21.332031 92.066406 21.429688 C 90.6875 23.496094 88.730469 24.816406 87.792969 23.285156 C 86.941406 21.890625 87.5625 20.726562 87.535156 20.554688 C 87.363281 19.5 84.78125 22.988281 83.625 20.410156 C 83.164062 19.378906 85.042969 16.035156 85.238281 15.6875 C 86.546875 14.332031 86.480469 14.15625 88.335938 13.789062 C 90.195312 13.421875 91.195312 6.589844 92.195312 6.488281 C 94.804688 6.230469 90.273438 14.421875 88.976562 21.609375 C 88.5 24.25 92.433594 19.140625 94.148438 16.195312 C 97.449219 10.523438 99.9375 13.78125 99.21875 15.390625 C 98.390625 17.253906 97.992188 16.898438 96.09375 17.660156 C 94.941406 18.121094 94.253906 23.664062 97.09375 20.886719 C 102.738281 15.363281 101.207031 14.386719 104.46875 7.199219 Z M 96.378906 15.988281 C 96.625 15.886719 96.929688 16 97.175781 15.898438 C 97.457031 15.78125 97.949219 15.085938 97.949219 14.910156 C 97.949219 14.757812 97.246094 13.78125 96.378906 15.988281 Z M 86.207031 17.230469 C 86.101562 17.402344 84.285156 20.300781 85.605469 19.71875 C 86.28125 19.417969 89.332031 15.46875 87.792969 15.546875 C 87.609375 15.558594 87.378906 15.570312 86.207031 17.230469 Z M 86.207031 17.230469 " fill-opacity="1" fill-rule="evenodd"/><path fill="#faf1d7" d="M 72.660156 7.332031 C 73.78125 10.878906 67.707031 21.839844 69.554688 22.085938 C 70.457031 22.207031 74.316406 16.082031 75.792969 14.070312 C 79.605469 11.132812 80.265625 15.222656 78.402344 16.683594 C 76.9375 17.835938 75.347656 17.042969 75.203125 20.527344 C 75.035156 24.617188 80.714844 16.71875 80.960938 16.414062 C 81.867188 15.277344 82.417969 16.339844 82.027344 17.082031 C 81.929688 17.273438 81.894531 17.210938 80.4375 19.289062 C 78.757812 21.367188 76.109375 24.507812 74.140625 22.519531 C 73.183594 21.554688 73.949219 20.113281 72.792969 20.808594 C 72.304688 21.101562 71.960938 21.757812 71.105469 22.707031 C 70.03125 23.65625 69.667969 23.6875 69.453125 23.710938 C 67.105469 23.964844 67.832031 20.347656 67.429688 20.332031 C 66.101562 20.277344 65.402344 23.359375 63.316406 22.296875 C 62.089844 21.671875 63.011719 19.613281 61.785156 19.570312 C 61.621094 19.5625 59.738281 23.097656 58.261719 18.976562 C 57.785156 18.296875 57.863281 18.273438 57.234375 17.730469 C 59.363281 16.695312 59.042969 16.304688 60.808594 14.699219 C 62.234375 13.402344 62.558594 14.164062 64.5 13.394531 C 67.25 12.300781 63.933594 19.003906 64.050781 20.511719 C 64.152344 21.785156 65.371094 20.152344 67.320312 17.808594 C 68.855469 15.957031 68.945312 15.207031 71.148438 8.875 C 71.308594 8.484375 71.394531 8.0625 71.550781 7.671875 C 71.804688 7.046875 71.984375 7.320312 72.660156 7.332031 Z M 76.75 16.027344 L 77.785156 15.511719 C 78.269531 14.898438 77.671875 14.039062 76.855469 15.058594 C 76.457031 15.554688 76.75 16.011719 76.75 16.027344 Z M 62.222656 17.1875 L 62.667969 16.570312 C 62.726562 16.492188 63.785156 15.007812 62.214844 15.453125 C 61.75 15.582031 60.257812 17.921875 60.144531 18.34375 C 59.535156 20.582031 62.105469 17.335938 62.222656 17.1875 Z M 62.222656 17.1875 " fill-opacity="1" fill-rule="evenodd"/><path fill="#faf1d7" d="M 37.320312 6.757812 C 37.828125 6.234375 39.1875 4.597656 40.53125 4.261719 C 47.226562 2.589844 44.523438 16.226562 42.207031 10.578125 C 42.667969 8.367188 42.640625 8.03125 42.625 7.808594 C 41.894531 -1.164062 29.152344 22.402344 34.953125 24.144531 C 36.558594 24.625 38.546875 22.386719 39.117188 21.863281 C 43.347656 17.546875 43.863281 16.597656 44.121094 16.273438 C 45.367188 14.78125 45.28125 14.734375 46.820312 13.597656 C 48.574219 13.261719 48.683594 13.214844 48.835938 13.152344 C 53.117188 11.359375 47.839844 18.386719 49.1875 21.410156 L 49.628906 22.46875 C 46.648438 23.386719 47.261719 20.246094 47.277344 20.003906 C 47.414062 17.941406 45.808594 20.566406 45.738281 20.679688 C 45.570312 20.84375 44.328125 22.71875 42.972656 20.96875 C 41.703125 19.324219 41.863281 23.238281 36.171875 25.585938 C 34.089844 25.792969 34.003906 25.71875 32.480469 24.316406 C 29.523438 19.238281 33.386719 11.675781 37.320312 6.757812 Z M 44.59375 19.867188 C 47.707031 16.878906 48.390625 14.839844 47.269531 15.058594 C 47.089844 15.09375 46.867188 15.136719 45.703125 16.75 C 43.863281 19.304688 44.578125 19.753906 44.59375 19.867188 Z M 44.59375 19.867188 " fill-opacity="1" fill-rule="evenodd"/><path fill="#faf1d7" d="M 126.96875 6.46875 L 126.515625 7.621094 C 120.550781 23.875 121.429688 26.960938 118.28125 25.585938 C 116.804688 24.941406 117.246094 22.640625 116.835938 14.34375 C 116.773438 13.097656 116.953125 4.835938 115.328125 10.925781 C 115.035156 12.023438 113.839844 15.425781 113.832031 15.445312 C 112.785156 18.742188 112.921875 18.738281 112.015625 22.074219 C 111.621094 23.53125 109.925781 23.679688 110.242188 21.601562 C 110.394531 20.585938 110.679688 17.246094 114.433594 7.691406 C 115.339844 5.753906 115.257812 4.617188 117.132812 5.628906 C 118.542969 6.386719 118.511719 9.980469 118.644531 11.027344 L 118.695312 12.132812 C 119.1875 22.769531 118.523438 24.886719 119.5625 23.480469 C 119.894531 23.03125 124.796875 2.625 127.164062 4.929688 C 127.429688 5.183594 127.011719 6.351562 126.96875 6.46875 Z M 126.96875 6.46875 " fill-opacity="1" fill-rule="evenodd"/><path fill="#faf1d7" d="M 57.234375 17.730469 C 57.863281 18.273438 57.785156 18.296875 58.261719 18.976562 C 56.332031 19.273438 56.691406 19.863281 56.636719 21.097656 C 56.535156 23.304688 54.070312 24.648438 52.867188 24.269531 C 49.511719 23.222656 54.351562 20.292969 54.007812 18.851562 C 53.476562 16.621094 52.6875 19.988281 49.628906 22.46875 L 49.1875 21.410156 C 52.445312 17.835938 53.050781 15.542969 53.207031 14.953125 C 54.273438 10.914062 60.148438 11.585938 58.828125 14.402344 C 58.316406 15.488281 57.269531 15.597656 57.257812 14.441406 C 57.234375 12.179688 53.613281 14.144531 55.648438 17.738281 C 56.125 18.578125 56.34375 18.101562 57.234375 17.730469 Z M 53.742188 23.058594 C 55.652344 21.601562 54.574219 21.117188 54.464844 21.152344 C 53.851562 21.335938 52.96875 22.332031 53.28125 22.914062 C 53.359375 23.054688 53.667969 22.917969 53.742188 23.058594 Z M 53.742188 23.058594 " fill-opacity="1" fill-rule="evenodd"/></svg>